<svg width="136" height="475" xmlns="http://www.w3.org/2000/svg"><g fill="none" fill-rule="evenodd"><g stroke="#67BECE" stroke-linecap="round" stroke-width="6"><path d="M57.251 205.736s-3.163-15.22 8.311-23.638M72.938 205.736s-3.163-15.22 8.31-23.638"/></g><path d="M89.855 471.329c-6.401 1.319-12.059-4.061-12.885-10.239-1.329-9.996 1.709-19.707-4.911-28.59-1.979-2.657-7.186-7.245-10.892-7.245 3.706 0 8.912-4.584 10.892-7.241 6.62-8.883 3.582-18.592 4.911-28.589.826-6.18 6.483-11.56 12.885-10.24M59.453 471.329c-6.402 1.319-12.06-4.061-12.885-10.239-1.33-9.996 1.709-19.707-4.912-28.59-1.979-2.657-7.186-7.245-10.891-7.245 3.705 0 8.912-4.584 10.891-7.241 6.621-8.883 3.582-18.592 4.912-28.589.825-6.18 6.482-11.56 12.885-10.24M29.05 471.329c-6.401 1.319-12.06-4.061-12.885-10.239-1.33-9.996 1.709-19.707-4.912-28.59-1.979-2.657-7.185-7.245-10.89-7.245 3.705 0 8.911-4.584 10.89-7.241 6.621-8.883 3.582-18.592 4.912-28.589.825-6.18 6.483-11.56 12.885-10.24" stroke="#E3EBF1" stroke-width="6" stroke-linecap="round"/><path stroke="#F9C7C5" stroke-width="6" stroke-linecap="round" stroke-linejoin="round" d="M93.692 110.345h-18.18V3.687h18.18"/><g transform="translate(103 250)" fill="#69BED0" fill-rule="nonzero" stroke="#69BED0"><circle cx="4" cy="4" r="4"/><circle cx="28" cy="4" r="4"/><circle cx="4" cy="16" r="4"/><circle cx="28" cy="16" r="4"/><circle cx="4" cy="28" r="4"/><circle cx="28" cy="28" r="4"/><circle cx="16" cy="40" r="4"/><circle cx="28" cy="40" r="4"/><circle cx="16" cy="52" r="4"/><circle cx="16" cy="4" r="4"/><circle cx="16" cy="16" r="4"/><circle cx="16" cy="28" r="4"/><circle cx="4" cy="40" r="4"/><circle cx="4" cy="52" r="4"/><circle cx="28" cy="52" r="4"/><circle cx="4" cy="64" r="4"/><circle cx="16" cy="64" r="4"/><circle cx="28" cy="64" r="4"/></g></g></svg>